# xmcd
#
# Track frame offsets: 
#        150
#        12798
#        24708
#        36714
#        50013
#        63180
#        75399
#        86573
#        99238
#        110597
#        121340
#        132907
#        143934
#        155413
#        167459
#        180000
#
# Disc length: 2559 seconds
#
# Revision: 0
# Processed by: cddbd v1.5.2PL0 Copyright (c) Steve Scherf et al.
# Submitted via: ExactAudioCopy v0.95b4
#
DISCID=c509fd10
DTITLE=Various Artist - Billbilly Boogie Disk 2
DYEAR=2006
DGENRE=Boogie
TTITLE0=Chet Atkins and His Guitar Pickers - Boogie Man Boogie
TTITLE1=Johnny Barfield - Boogie Woogie
TTITLE2=Charline Arthur - Ive Got the Boogie Blues
TTITLE3=The Delmore Brothers - Pan American Boogie
TTITLE4=Curley Williams and The Georgia Peach Pickers - Georgia Boogie
TTITLE5=Grandpa Jones and His Grandchildren - Grandpa's Boogie
TTITLE6=Tennessee Ernie Ford - Blackberry Boogie
TTITLE7=Bill Haley and The Saddlemen - Green Tree Boogie
TTITLE8=Jimmy Bryant - Boogie Barn Dance
TTITLE9=Bob Wills and His Texas Playboys - Cowboy Stomp
TTITLE10=Zeb Turner - Chattanooga Boogie
TTITLE11=Redd Stewart and His Kentucky Colonels - Brother, Drop Dead (Bo
TTITLE11=ogie)
TTITLE12=Jerry Irby and His Texas Ranchers - Hillbilly Boogie
TTITLE13=Chet Atkins and His Guitar Pickers - Centipede Boogie
TTITLE14=Village Boys - Boogie Woogie in the Village
TTITLE15=Spade Cooley and His Band - Three Way Boogie
EXTD=
EXTT0=
EXTT1=
EXTT2=
EXTT3=
EXTT4=
EXTT5=
EXTT6=
EXTT7=
EXTT8=
EXTT9=
EXTT10=
EXTT11=
EXTT12=
EXTT13=
EXTT14=
EXTT15=
PLAYORDER=
